<svg xmlns="http://www.w3.org/2000/svg" version="1.0" width="320.000000pt" height="320.000000pt" viewBox="0 0 320.000000 320.000000" preserveAspectRatio="xMidYMid meet">
	<g transform="translate(0.000000,320.000000) scale(0.100000,-0.100000)" fill="#cdcdcd" stroke="none">
		<path d="M1014 3186 c-94 -30 -177 -116 -203 -211 -6 -22 -11 -70 -11 -107 l0 -68 -167 0 c-185 0 -225 -7 -296 -52 -102 -65 -137 -156 -137 -353 0 -121 2 -135 26 -183 28 -56 81 -96 142 -108 l32 -6 0 -864 c0 -601 3 -879 11 -916 33 -155 153 -275 307 -307 75 -16 1690 -15 1764 0 109 23 220 105 267 197 51 101 51 93 51 1023 l0 867 32 6 c61 12 114 52 142 108 24 48 26 62 26 183 0 197 -35 288 -137 353 -71 45 -111 52 -294 52 l-167 0 -4 88 c-6 137 -62 228 -174 283 l-49 24 -560 2 c-436 2 -569 -1 -601 -11z m1131 -198 c38 -17 55 -58 55 -128 l0 -60 -600 0 -600 0 0 63 c1 68 15 103 51 123 33 18 1054 20 1094 2z m604 -402 c41 -22 51 -55 51 -176 l0 -110 -1200 0 -1200 0 0 113 c1 120 9 150 51 173 37 21 2258 20 2298 0z m-149 -1356 c0 -763 -2 -875 -15 -908 -21 -49 -52 -81 -100 -103 -38 -18 -85 -19 -883 -19 -738 0 -847 2 -880 15 -49 21 -81 52 -103 100 -18 38 -19 86 -19 913 l0 872 1000 0 1000 0 0 -870z" fill="#cdcdcd" />
		<path d="M835 1867 l-35 -35 0 -682 0 -682 34 -34 34 -34 132 0 132 0 34 34 34 34 0 681 0 681 -29 32 -29 33 -136 3 -136 4 -35 -35z m265 -717 l0 -650 -100 0 -100 0 0 650 0 650 100 0 100 0 0 -650z" fill="#cdcdcd" />
		<path d="M1435 1867 l-35 -35 0 -682 0 -682 34 -34 34 -34 132 0 132 0 34 34 34 34 0 681 0 681 -29 32 -29 33 -136 3 -136 4 -35 -35z m265 -717 l0 -650 -100 0 -100 0 0 650 0 650 100 0 100 0 0 -650z" fill="#cdcdcd" />
		<path d="M2064 1891 c-12 -5 -31 -22 -43 -37 -21 -27 -21 -27 -21 -706 l0 -680 34 -34 34 -34 132 0 132 0 34 34 34 34 0 681 0 681 -29 32 -29 33 -129 2 c-70 2 -138 -1 -149 -6z m236 -741 l0 -650 -100 0 -100 0 0 650 0 650 100 0 100 0 0 -650z" fill="#cdcdcd" />
	</g>
</svg>
